<svg xmlns="http://www.w3.org/2000/svg" xmlns:xlink="http://www.w3.org/1999/xlink" width="66" height="10"><defs><path id="a" d="M0 .032h9.177v9.655H0z"/><path id="c" d="M.145.031h9.631v9.178H.145z"/></defs><g fill="none" fill-rule="evenodd" opacity=".42" transform="translate(0 .317)"><mask id="b" fill="#fff"><use xlink:href="#a"/></mask><path fill="#FFF" d="M4.6.032C2.06.032 0 2.194 0 4.86c0 2.666 2.06 4.827 4.6 4.827 2.386 0 4.347-1.905 4.577-4.345h-2.11C6.851 6.566 5.83 7.493 4.6 7.493c-1.386 0-2.509-1.18-2.509-2.633 0-1.455 1.123-2.634 2.51-2.634 1.228 0 2.25.927 2.466 2.151h2.11C8.947 1.937 6.986.032 4.6.032" mask="url(#b)"/><path fill="#FFF" d="M13.835 0A4.623 4.623 0 009.23 4.155a.462.462 0 010 .922 4.623 4.623 0 004.604 4.154 4.621 4.621 0 004.627-4.615A4.621 4.621 0 0013.835 0m0 2.098a2.52 2.52 0 00-2.524 2.518 2.52 2.52 0 002.524 2.517 2.52 2.52 0 002.523-2.517 2.52 2.52 0 00-2.523-2.518"/><path fill="#FFF" d="M23.077 0a4.621 4.621 0 00-4.615 4.627 4.623 4.623 0 004.154 4.604V7.108a2.523 2.523 0 01-2.057-2.481 2.52 2.52 0 012.518-2.524 2.52 2.52 0 012.517 2.524 2.523 2.523 0 01-2.056 2.481v2.123a4.623 4.623 0 004.154-4.604A4.621 4.621 0 0023.077 0"/><path fill="#FFF" d="M32.308 0a4.616 4.616 0 102.92 8.189l-1.496-1.497a2.517 2.517 0 11.652-.652l1.497 1.497A4.616 4.616 0 0032.308 0"/><path fill="#FFF" d="M41.076.002a4.627 4.627 0 105.078 5.065.463.463 0 010-.924A4.628 4.628 0 0042 0v2.121a2.524 2.524 0 11-.925.005V.002zM51.539 0a4.63 4.63 0 00-4.616 4.154h2.128a2.528 2.528 0 012.488-2.056c1.238 0 2.27.886 2.487 2.056h2.128A4.63 4.63 0 0051.539 0zm-4.616 5.077A4.63 4.63 0 0051.54 9.23a4.63 4.63 0 004.615-4.154h-2.128a2.528 2.528 0 01-2.487 2.056 2.528 2.528 0 01-2.488-2.056h-2.128z"/><g transform="translate(55.385)"><mask id="d" fill="#fff"><use xlink:href="#c"/></mask><path fill="#FFF" d="M4.948.03C2.445.03.386 1.847.145 4.172a.47.47 0 01.458.46.47.47 0 01-.458.46C.37 7.266 2.19 8.997 4.478 9.208V7.1c-1.23-.21-2.163-1.236-2.163-2.468 0-1.386 1.179-2.51 2.633-2.51 1.455 0 2.634 1.124 2.634 2.51 0 .526-.17 1.015-.462 1.419l1.566 1.492a4.45 4.45 0 001.09-2.911c0-2.54-2.161-4.6-4.828-4.6zm1.49 6.67c-.294.193-.632.33-.995.395v2.112a4.932 4.932 0 002.56-1.015L6.439 6.7z" mask="url(#d)"/></g></g></svg>