<svg xmlns="http://www.w3.org/2000/svg" width="15" height="14"><path fill="#FFF" fill-rule="evenodd" d="M7.635.161c3.949 0 7.16 2.588 7.16 5.77 0 1.273-.496 2.42-1.534 3.55-1.501 1.716-4.861 3.807-5.626 4.126-.764.32-.651-.203-.62-.383l.102-.608c.024-.182.049-.464-.023-.643-.08-.198-.397-.3-.631-.35C3.022 11.17.473 8.782.473 5.93.473 2.748 3.687.16 7.635.16zM3.448 4.42h-.51a.143.143 0 00-.142.144V7.76a.14.14 0 00.04.099l.002.003.002.002a.14.14 0 00.097.039h2.04a.143.143 0 00.142-.143v-.514a.143.143 0 00-.142-.144H3.59v-2.54a.144.144 0 00-.142-.143zm8.884 0h-2.04a.143.143 0 00-.098.04l-.004.005a.144.144 0 00-.04.099V7.76a.15.15 0 00.04.099l.001.001.004.004c.025.024.06.039.097.039h2.04a.143.143 0 00.142-.143v-.515a.143.143 0 00-.142-.143h-1.387v-.54h1.387a.144.144 0 00.142-.144v-.514a.142.142 0 00-.142-.143h-1.387V5.22h1.387a.142.142 0 00.142-.143v-.514a.144.144 0 00-.142-.144zm-6.19 0h-.498a.14.14 0 00-.139.143V7.76a.14.14 0 00.14.142h.497a.14.14 0 00.138-.142V4.562a.14.14 0 00-.138-.143zm1.195 0h-.524a.144.144 0 00-.145.143V7.76c0 .079.065.142.145.142h.524c.08 0 .146-.063.146-.142v-1.9l1.493 1.983c.01.014.023.025.037.035v.001a.04.04 0 00.01.005l.004.003.007.003.003.001.009.004.01.003a.158.158 0 00.039.004h.524c.08 0 .146-.063.146-.142V4.562a.145.145 0 00-.146-.143h-.524a.144.144 0 00-.145.143v1.9l-1.492-1.98-.011-.014h-.001l-.01-.01-.01-.008c0-.002-.002-.002-.003-.003l-.008-.006-.004-.001-.008-.005-.005-.002-.008-.004-.004-.001-.01-.003-.004-.001-.008-.002-.007-.001h-.004l-.011-.001-.005-.001z"/></svg>