<svg xmlns="http://www.w3.org/2000/svg" xmlns:xlink="http://www.w3.org/1999/xlink" width="150" height="150"><defs><path id="a" d="M0 .867h38.635V24H0z"/><path id="c" d="M.22.012H39v22.844H.22z"/></defs><g fill="none" fill-rule="evenodd"><path d="M0 0h150v150H0z"/><path fill="#E7B656" fill-rule="nonzero" d="M51.587 46.48c0 3.161 1.722 6.06 4.584 8.36l5.367 7.29.165 12.64c.795 4.205 5.421 7.445 11.064 7.445s10.27-3.24 11.064-7.446l.162-12.639 5.37-7.293c2.862-2.298 4.584-5.196 4.584-8.358 0-7.443-9.483-13.479-21.18-13.479s-21.18 6.036-21.18 13.48"/><g transform="translate(15 93)"><mask id="b" fill="#fff"><use xlink:href="#a"/></mask><path fill="#E7B656" fill-rule="nonzero" d="M38.605 23.772C37.435 26.1 2.488 9.834 2.488 9.834.228 8.628-.65 5.76.517 3.432 1.684 1.104 4.465.195 6.724 1.398c0 0 33.05 20.046 31.88 22.374" mask="url(#b)"/></g><g transform="translate(96 94)"><mask id="d" fill="#fff"><use xlink:href="#c"/></mask><path fill="#E7B656" fill-rule="nonzero" d="M.249 22.622C-.9 20.285 32.313.527 32.313.527c2.265-1.188 5.037-.252 6.189 2.085 1.149 2.337.243 5.199-2.025 6.384 0 0-35.076 15.963-36.228 13.626" mask="url(#d)"/></g><path fill="#E7B656" fill-rule="nonzero" d="M60.22 101.92c-1.797 1.853-30.327-24.565-30.327-24.565-1.797-1.854-1.797-4.863 0-6.717a4.51 4.51 0 016.51 0s25.614 29.427 23.817 31.281m25.356.001c-1.8-1.855 23.814-31.282 23.814-31.282a4.514 4.514 0 016.513 0c1.797 1.854 1.797 4.863 0 6.717 0 0-28.53 26.418-30.327 24.564"/></g></svg>