<svg xmlns="http://www.w3.org/2000/svg" viewBox="0 0 42 33.72"><defs><style>.cls-1{opacity:0.87;}.cls-2,.cls-3{fill:#fff;}.cls-3{fill-rule:evenodd;}</style></defs><title>banner_資產 7</title><g id="圖層_2" data-name="圖層 2"><g id="圖層_1-2" data-name="圖層 1"><g class="cls-1"><path class="cls-2" d="M39.45,11.93,41.72,14a3.13,3.13,0,0,1-1.47,4.12c-2.72,1.56-4-1.59-4.52-3.5a6.84,6.84,0,0,0-3.57-3.82c-.67-.1.31-1.24.31-1.24s-3-2.94-4.18-3.41-2.17-.41-1.91-1.29,1.29-1,.46-2.22S25.42-.57,26.34.15,36.71,8.93,36.71,8.93s.41.47-.05.78S37.07,13.37,39.45,11.93Z"/><path class="cls-2" d="M42,15.93l0,0h0Z"/><path class="cls-2" d="M31.11,28c.88-1.3,4.71-5.47,7.58-8.54a3,3,0,0,1-2.17-1.83,2.25,2.25,0,0,1-.94,1.1,9.08,9.08,0,0,0-2.72,2.95,2,2,0,0,1-1.46,2s-2.33,5.06-3.31,5.44a3.73,3.73,0,0,0-1.94,1.66c-.29.58-1.56.39-2.43.68s-1.07,2.14-1.07,2.14C26.73,34.48,29.65,30.11,31.11,28Z"/><path class="cls-3" d="M3.62,16.22h.54c.08-2.4.51-3.47,1.4-3.45,1.1,0,2.29,1.91,3.11,3.52.53-2.48,1.27-3.57,2.3-3.41s2,1.69,2.63,3c.34-1.91.89-2.75,1.75-2.67s1.91,1.51,2.56,2.8c.33-1.94.91-2.83,1.78-2.78,1.07.06,2.07,1.59,2.62,2.6.33-1.88.88-2.7,1.73-2.62s1.91,1.51,2.56,2.8c.33-1.94.91-2.83,1.78-2.78,1.21.06,2.32,2,2.8,2.95h.66l.28,1.2H31.06a.73.73,0,0,1-.61-.45c-.52-1.17-1.41-2.48-1.85-2.51-.08,0-.84.07-1.13,3.76a.4.4,0,0,1-.45.39.73.73,0,0,1-.58-.49c-.64-1.7-1.73-3.63-2.22-3.68,0,0-.76,0-1.08,3.78a.4.4,0,0,1-.46.39.74.74,0,0,1-.58-.52,15.84,15.84,0,0,0-.9-2.16h0c-.46-.79-1-1.45-1.3-1.47-.08,0-.84.07-1.14,3.76a.39.39,0,0,1-.44.39.73.73,0,0,1-.58-.49c-.64-1.7-1.73-3.63-2.22-3.68,0,0-.77,0-1.08,3.78a.41.41,0,0,1-.46.39.74.74,0,0,1-.58-.52c-.61-1.83-1.71-3.93-2.32-4-.16,0-1,.06-1.63,4.2a.38.38,0,0,1-.44.35.75.75,0,0,1-.57-.46C7.53,16,6.25,14,5.82,14c0,0-.55.07-.59,3a.41.41,0,0,1-.41.44H3.89L0,16.85Z"/></g></g></g></svg>