<svg xmlns="http://www.w3.org/2000/svg" viewBox="0 0 42 33.72"><defs><style>.cls-1{opacity:0.87;}.cls-2,.cls-3{fill:#fff;}.cls-3{fill-rule:evenodd;}</style></defs><title>banner_資產 2</title><g id="圖層_2" data-name="圖層 2"><g id="圖層_1-2" data-name="圖層 1"><g class="cls-1"><path class="cls-2" d="M2.55,11.93.28,14a3.13,3.13,0,0,0,1.47,4.12c2.72,1.56,4-1.59,4.52-3.5a6.84,6.84,0,0,1,3.57-3.82c.67-.1-.31-1.24-.31-1.24s3-2.94,4.18-3.41,2.17-.41,1.91-1.29-1.29-1-.46-2.22,1.42-3.25.5-2.53S5.29,8.93,5.29,8.93s-.41.47,0,.78S4.93,13.37,2.55,11.93Z"/><path class="cls-2" d="M0,15.93l0,0H0Z"/><path class="cls-2" d="M10.89,28c-.88-1.3-4.71-5.47-7.58-8.54A3,3,0,0,0,5.48,17.6a2.25,2.25,0,0,0,.94,1.1,9.08,9.08,0,0,1,2.72,2.95,2,2,0,0,0,1.46,2s2.33,5.06,3.31,5.44a3.73,3.73,0,0,1,1.94,1.66c.29.58,1.56.39,2.43.68s1.07,2.14,1.07,2.14C15.27,34.48,12.35,30.11,10.89,28Z"/><path class="cls-3" d="M38.38,16.22h-.54c-.08-2.4-.51-3.47-1.4-3.45-1.1,0-2.29,1.91-3.11,3.52-.53-2.48-1.27-3.57-2.3-3.41s-2,1.69-2.63,3c-.34-1.91-.89-2.75-1.75-2.67s-1.91,1.51-2.56,2.8c-.33-1.94-.91-2.83-1.78-2.78-1.07.06-2.07,1.59-2.62,2.6-.33-1.88-.88-2.7-1.73-2.62s-1.91,1.51-2.56,2.8c-.33-1.94-.91-2.83-1.78-2.78-1.21.06-2.32,2-2.8,2.95h-.66l-.28,1.2h1.06a.73.73,0,0,0,.61-.45c.52-1.17,1.41-2.48,1.85-2.51.08,0,.84.07,1.13,3.76a.4.4,0,0,0,.45.39.73.73,0,0,0,.58-.49c.64-1.7,1.73-3.63,2.22-3.68,0,0,.76,0,1.08,3.78a.4.4,0,0,0,.46.39.74.74,0,0,0,.58-.52,15.84,15.84,0,0,1,.9-2.16h0c.46-.79,1-1.45,1.3-1.47.08,0,.84.07,1.14,3.76a.39.39,0,0,0,.44.39.73.73,0,0,0,.58-.49c.64-1.7,1.73-3.63,2.22-3.68,0,0,.77,0,1.08,3.78a.41.41,0,0,0,.46.39.74.74,0,0,0,.58-.52c.61-1.83,1.71-3.93,2.32-4,.16,0,1,.06,1.63,4.2a.38.38,0,0,0,.44.35.75.75,0,0,0,.57-.46C34.47,16,35.75,14,36.18,14c0,0,.55.07.59,3a.41.41,0,0,0,.41.44h.93L42,16.85Z"/></g></g></g></svg>