<svg xmlns="http://www.w3.org/2000/svg" viewBox="0 0 32.57 13.28"><defs><style>.cls-1{fill:#fff;}</style></defs><title>banner_資產 9</title><g id="圖層_2" data-name="圖層 2"><g id="圖層_1-2" data-name="圖層 1"><path class="cls-1" d="M29.3,0A8.14,8.14,0,0,0,23.6,2.7l-.23.22A10.63,10.63,0,0,1,17.2,4.73H1.91a1.91,1.91,0,0,0,0,3.82H17.2a10.7,10.7,0,0,1,6.17,1.8,2.44,2.44,0,0,1,.23.16c1.94,1.93,4.18,2.85,5.7,2.76h.1c1.75,0,3.17-3,3.17-6.64S31.15,0,29.4,0ZM2.55,5.72a.92.92,0,1,1-.92.92A.92.92,0,0,1,2.55,5.72Zm27.6,3.17v.52a1.32,1.32,0,0,1-.67,1.14l-.48.26a1,1,0,0,1-.78.1L25,9.86a.59.59,0,0,1-.42-.64.6.6,0,0,1,.27-.51,1,1,0,0,0,.37-.77V5.34a.94.94,0,0,0-.37-.77.6.6,0,0,1-.27-.51c0-.57.42-.64.42-.64l3.23-1a1.06,1.06,0,0,1,.78.09l.48.27a1.32,1.32,0,0,1,.67,1.14v5Z"/></g></g></svg>