<svg xmlns="http://www.w3.org/2000/svg" width="421" height="113"><g fill="none" fill-rule="evenodd"><path fill="red" d="M142.407 0l-1.896 5.767h-5.549l4.609 3.504L137.853 15l4.554-3.502L147.03 15l-1.716-5.729 4.648-3.521h-5.71z"/><path fill="#FFF" d="M.962 21v23h6.31V28.001h38.379V45H8.41v7h43.552V21zm141 31h6V23h-6zM77.27 37h38.384v-9H77.27v9zm37.016 15h6.308l-6.08-8.001h7.448V21h-51v31h6.309v-8.001h30.934l6.08 8.001zm95.368 0h6.308V21h-51v31h6.309V27.999h38.383zm73.749-31h-6.352l-6.122 12h-29.615V21h-6.352v31h6.352V40h38.645l6.122 12h7.881l-9.183-19h-7.498zm27.868 19h44.691v-7h-44.691v-5.001h44.691V21h-51v31h51v-7.001h-44.691zm58.691-19v31h6.31v-8h30.932l6.08 8h6.309l-6.08-8h7.45V21h-51zm6.31 16h38.38v-9h-38.38v9z"/><g fill="#FFF"><path d="M198.483 83.669h27.565v2.685h4.687v-6.346h-15.783L213.23 77h-5.548l1.725 3.008h-15.611v6.507h4.687z"/><path d="M207.275 92.085h-5.139c.316-.295.59-.67.82-1.127l.218-.443h17.793l-8.765 3.539-4.927-1.97zm-5.05 5.146h-9.633l3.46 3.618h7.51c1.67 0 3.05-.253 4.146-.763l4.36-1.809 3.89 1.89c.95.455 2.044.682 3.282.682h12.179l-3.458-3.618h-5.31c-1.612 0-3.067-.255-4.362-.765l-.951-.361 12.87-5.308-3.459-3.457h-21.936l1.298-2.494h-5.054l-1.77 3.619c-.344.724-.893 1.086-1.642 1.086h-4.36l3.457 3.458h2.758c.462 0 .88-.054 1.255-.16l6.566 3.176-1.902.764c-.778.296-1.845.442-3.194.442zm-1.894 12.424h23.348v-3.617h-23.348v3.617zm-4.252-6.915v10.215h31.44c.043 0 .078.007.118.01V102.74h-31.558zm-51.092-14.199v6.636c0 .616.336.924 1.006.924h2.04v-7.56h-3.046zm-7.995-3.418h4.232v-3.62h-4.232v3.62zm9.348 23.685c.787 0 1.692-.308 1.692-.925v-1.89h-17.83v2.815h16.138zm-16.137-12.385h2.373c.438 0 .657-.576.657-1.73v-6.152h-3.03v7.882zm0 6.112h17.83V99.72h-3.046c-2.51 0-3.762-1.206-3.762-3.619v-7.56h-4.233v8.205c0 .857-.305 1.583-.918 2.172-.497.536-1.21.803-2.143.803h-3.73v2.815zm20.494-24.489l3.505 3.457h-9.215v3.62h7.684v24.65c0 1.77-1.138 2.653-3.412 2.653h-23.692V85.123h7.666v-3.62h-6.216l-3.506-3.457h27.186zm-26.871 9.248h-4.215l-4.649-8.927h4.216zm0 10.682h-4.215l-4.649-8.928h4.216zm-8.864 14.631h4.533l4.88-11.399h-4.531zm164.98-34.382h-3.585l-4.271 5.965c-.229.237-.343.477-.343.714v2.664h4.423l-3.584 5.128c-.662.796-.99 1.419-.99 1.868v2.146h4.322v16.156h3.126V96.71h1.036l.477-1.22-.574-1.881h-4.345l6.431-9.14h-6.735l4.612-6.245zm16.642-.545h-10.84v35.186h4.03V80.977h15.187v27.183c0 .509-.284.763-.85.763h-4.884v3.46h6.273c2.446 0 3.671-1.046 3.671-3.137V77.68h-12.587z"/><path d="M290.799 89.904h13.319v-3.137h-1.749l1.011-4.061h-3.594l-1.013 4.061h-2.812l-.645-4.061h-3.641l.645 4.061h-1.521zm12.582 13.069h-5.945c-.462 0-.692-.214-.692-.643v-4.866h7.375v-3.297h-4.84l-.606-3.137h-4.332l.607 3.137h-4.15v3.297h1.98v6.916c0 1.261.787 1.889 2.353 1.889h8.249v-3.297zm-33.913 9.096h3.167l2.95-13.06h-3.168zm15.966 0h-3.167l-2.95-13.06h3.169zm-2.816-22.029l-4.789 6.669h3.453l4.921-6.669z"/></g></g></svg>