<svg viewBox="0 0 32.57 13.28" xmlns="http://www.w3.org/2000/svg"><path d="m29.3 0a8.14 8.14 0 0 0 -5.7 2.7l-.23.22a10.63 10.63 0 0 1 -6.17 1.81h-15.29a1.91 1.91 0 0 0 0 3.82h15.29a10.7 10.7 0 0 1 6.17 1.8 2.44 2.44 0 0 1 .23.16c1.94 1.93 4.18 2.85 5.7 2.76h.1c1.75 0 3.17-3 3.17-6.64s-1.42-6.63-3.17-6.63zm-26.75 5.72a.92.92 0 1 1 -.92.92.92.92 0 0 1 .92-.92zm27.6 3.17v.52a1.32 1.32 0 0 1 -.67 1.14l-.48.26a1 1 0 0 1 -.78.1l-3.22-1.05a.59.59 0 0 1 -.42-.64.6.6 0 0 1 .27-.51 1 1 0 0 0 .37-.77v-2.6a.94.94 0 0 0 -.37-.77.6.6 0 0 1 -.27-.51c0-.57.42-.64.42-.64l3.23-1a1.06 1.06 0 0 1 .78.09l.48.27a1.32 1.32 0 0 1 .67 1.14v5z" fill="#040000"/></svg>