<svg xmlns="http://www.w3.org/2000/svg" xmlns:xlink="http://www.w3.org/1999/xlink" width="90" height="90"><defs><path id="a" d="M0 .236h67.17V17H0z"/></defs><g fill="none" fill-rule="evenodd" transform="translate(11 59)"><mask id="b" fill="#fff"><use xlink:href="#a"/></mask><path fill="#FFF" d="M0 13.568h3.03c.686 0 1.403-.536 1.748-1.298 1.496-3.34 4.038-7.112 5.293-7.177.246-.014 2.408.179 3.267 10.764.06.737.583 1.201 1.275 1.136.691-.065 1.38-.649 1.669-1.416 1.838-4.862 4.947-10.402 6.36-10.538.088-.008 2.196-.085 3.1 10.82.062.752.606 1.216 1.318 1.131.708-.087 1.394-.708 1.657-1.498 1.751-5.236 4.907-11.26 6.644-11.543.465-.074 2.868.155 4.67 12.019.102.677.617 1.093 1.272 1.022.66-.065 1.312-.597 1.62-1.32 2.644-6.14 6.322-11.974 7.568-12.005.014 0 1.576.199 1.689 8.642.011.748.482 1.26 1.153 1.26h2.686l11.15-1.643-10.365-1.787h-1.561c-.218-6.897-1.476-9.962-4.032-9.9-3.128.074-6.54 5.477-8.891 10.104C40.799 3.206 38.663.078 35.708.554c-3.043.49-5.73 4.848-7.548 8.73-.952-5.503-2.55-7.902-4.992-7.664-2.822.272-5.486 4.315-7.359 8.026-.946-5.556-2.6-8.117-5.097-7.984-3.462.187-6.641 5.692-8.03 8.472h-1.9l-.783 3.434z" mask="url(#b)"/></g></svg>