<svg xmlns="http://www.w3.org/2000/svg" xmlns:xlink="http://www.w3.org/1999/xlink" width="45" height="45"><defs><path id="a" d="M.009 10.589c0 5.091 4.37 9.355 10.268 10.16.4.089.945.273 1.083.626.123.32.082.823.04 1.148 0 0-.143.895-.176 1.086-.053.321-.245 1.255 1.065.685 1.31-.57 7.07-4.304 9.648-7.37 1.78-2.017 2.63-4.063 2.63-6.335 0-5.681-5.508-10.3-12.278-10.3C5.519.29.009 4.908.009 10.59z"/><path id="c" d="M.418.204C.3.204.205.32.205.46v5.8c0 .143.095.26.213.26h.774c.118 0 .215-.117.215-.26V.46c0-.141-.097-.257-.215-.257H.418z"/><path id="e" d="M4.887.204a.263.263 0 00-.268.257v3.447L1.87.318 1.85.29 1.847.289 1.831.273 1.825.27A.092.092 0 001.81.258L1.805.253C1.797.249 1.794.245 1.79.243 1.788.24 1.784.24 1.783.24c-.008-.004-.01-.006-.015-.01-.004-.001-.006-.003-.01-.003C1.754.224 1.75.224 1.745.222 1.74.22 1.738.218 1.734.218L1.72.213 1.709.209 1.694.207h-.011c-.005-.002-.01-.002-.015-.002L1.655.204H.68A.265.265 0 00.41.46v5.8c0 .143.122.26.27.26h.964c.15 0 .27-.117.27-.26V2.816l2.753 3.592c.02.028.044.048.068.066l.004.001a.075.075 0 00.017.01l.005.005.015.005a.09.09 0 00.013.006l.007.003c.006.002.015.002.019.006h.003c.023.005.045.01.069.01h.968a.265.265 0 00.267-.26V.46a.263.263 0 00-.267-.257h-.968z"/><path id="g" d="M.32.204a.254.254 0 00-.247.259V6.26a.27.27 0 00.068.18l.004.003.005.003a.244.244 0 00.17.075h3.582c.14 0 .25-.118.25-.261v-.934a.253.253 0 00-.25-.26H1.466V.464a.255.255 0 00-.248-.26H.32z"/><path id="i" d="M.41.204a.175.175 0 00-.14.072v.002L.266.283a.308.308 0 00-.056.18V6.26c0 .069.024.132.057.18l.003.003.003.003a.18.18 0 00.137.075h2.85c.111 0 .2-.118.2-.261v-.934c0-.142-.089-.26-.2-.26H1.323v-.979h1.939c.11 0 .199-.116.199-.259v-.934c0-.143-.089-.259-.2-.259H1.323v-.98h1.939c.11 0 .199-.117.199-.258V.463c0-.143-.089-.26-.2-.26H.41z"/></defs><g fill="none" fill-rule="evenodd"><g transform="translate(10 10)"><mask id="b" fill="#fff"><use xlink:href="#a"/></mask><path fill="#FEFEFE" d="M-4.14 28.793h32.855V-4.03H-4.139z" mask="url(#b)"/></g><g transform="translate(18.306 17.141)"><mask id="d" fill="#fff"><use xlink:href="#c"/></mask><path fill="#272727" d="M-3.558 10.905h8.725v-15.09h-8.725z" mask="url(#d)"/></g><g transform="translate(20.055 17.141)"><mask id="f" fill="#fff"><use xlink:href="#e"/></mask><use fill="#D8D8D8" xlink:href="#e"/><path fill="#272727" d="M-4.05 10.905h14.636v-15.09H-4.05z" mask="url(#f)"/></g><g transform="translate(13.497 17.141)"><mask id="h" fill="#fff"><use xlink:href="#g"/></mask><path fill="#272727" d="M-4.178 10.905H8.4v-15.09H-4.178z" mask="url(#h)"/></g><g transform="translate(26.612 17.141)"><mask id="j" fill="#fff"><use xlink:href="#i"/></mask><path fill="#272727" d="M-3.173 10.905H6.844v-15.09H-3.173z" mask="url(#j)"/></g></g></svg>