<svg xmlns="http://www.w3.org/2000/svg" xmlns:xlink="http://www.w3.org/1999/xlink" width="23" height="23"><defs><path id="a" d="M11.157.295c-2.998 0-3.375.013-4.554.067-1.173.055-1.976.246-2.68.525a5.434 5.434 0 00-1.957 1.3A5.57 5.57 0 00.69 4.185C.417 4.903.23 5.722.178 6.923.125 8.127.111 8.51.111 11.574s.014 3.446.067 4.65c.054 1.2.241 2.02.512 2.737a5.56 5.56 0 001.276 1.998 5.409 5.409 0 001.956 1.302c.701.279 1.506.468 2.68.525 1.18.053 1.557.067 4.557.067 2.999 0 3.373-.014 4.552-.067 1.176-.057 1.982-.246 2.683-.525a5.418 5.418 0 001.955-1.302 5.567 5.567 0 001.277-1.998c.271-.717.457-1.537.512-2.737.052-1.204.068-1.586.068-4.65 0-3.063-.016-3.447-.068-4.651-.055-1.2-.24-2.02-.512-2.738a5.551 5.551 0 00-1.277-1.998 5.412 5.412 0 00-1.955-1.3c-.703-.279-1.51-.47-2.685-.525-1.177-.054-1.551-.067-4.552-.067zm-4.46 20.453c-1.078-.05-1.665-.233-2.052-.388a3.435 3.435 0 01-1.272-.843 3.537 3.537 0 01-.826-1.297c-.151-.397-.332-.993-.382-2.094-.051-1.188-.062-1.547-.062-4.557 0-3.013.01-3.368.062-4.557.052-1.1.23-1.696.382-2.095.202-.526.44-.901.826-1.296a3.44 3.44 0 011.272-.845c.387-.155.974-.337 2.051-.388 1.017-.048 1.415-.062 3.471-.064v.004c.296-.002.625 0 .994 0 2.948 0 3.298.009 4.463.063 1.077.051 1.66.235 2.051.39a3.38 3.38 0 011.268.843c.387.396.626.77.826 1.297.154.397.332.994.382 2.095.052 1.187.064 1.546.064 4.556s-.012 3.366-.064 4.555c-.05 1.1-.228 1.696-.382 2.095-.2.526-.439.9-.826 1.295a3.38 3.38 0 01-1.268.843c-.39.155-.974.339-2.051.388-1.165.056-1.515.067-4.463.067-2.952 0-3.3-.01-4.465-.067zM15.73 5.553c0 .747.594 1.353 1.325 1.353S18.38 6.3 18.38 5.553 17.787 4.2 17.056 4.2s-1.325.606-1.325 1.353zM5.487 11.574c0 3.2 2.54 5.79 5.674 5.79 3.13 0 5.67-2.59 5.67-5.79 0-3.198-2.54-5.793-5.67-5.793-3.134 0-5.674 2.595-5.674 5.793zm1.99 0c0-2.078 1.647-3.76 3.684-3.76 2.032 0 3.682 1.682 3.682 3.76 0 2.076-1.65 3.76-3.682 3.76-2.037 0-3.684-1.684-3.684-3.76z"/></defs><g fill="none" fill-rule="evenodd"><mask id="b" fill="#fff"><use xlink:href="#a"/></mask><path fill="#FEFEFE" d="M-3.34 26.377h28.996V-3.23H-3.341z" mask="url(#b)"/></g></svg>